<svg xmlns="http://www.w3.org/2000/svg" version="1.1" xmlns:xlink="http://www.w3.org/1999/xlink" width="120" height="120"><svg width="120" height="120" viewBox="0 0 120 120" fill="none" xmlns="http://www.w3.org/2000/svg">
<path d="M0 24C0 10.7452 10.7452 0 24 0H96C109.255 0 120 10.7452 120 24V96C120 109.255 109.255 120 96 120H24C10.7452 120 0 109.255 0 96V24Z" fill="#304FDD"></path>
<path fill-rule="evenodd" clip-rule="evenodd" d="M85.0219 34.9781C80.3844 30.3406 72.8656 30.3406 68.2281 34.9781L53.9781 49.2281C49.3406 53.8656 49.3406 61.3844 53.9781 66.0219C54.9625 67.0063 56.0726 67.779 57.2546 68.3436C58.4381 68.909 58.9393 70.3269 58.3739 71.5104C57.8085 72.694 56.3907 73.1951 55.2071 72.6297C53.5453 71.8359 51.9903 70.7516 50.6194 69.3807C44.1269 62.8882 44.1269 52.3618 50.6194 45.8694L64.8694 31.6193C71.3618 25.1269 81.8882 25.1269 88.3807 31.6194C94.8731 38.1118 94.8731 48.6382 88.3807 55.1306L82.8169 60.6944C81.8894 61.6219 80.3856 61.6219 79.4582 60.6944C78.5307 59.7669 78.5307 58.2631 79.4582 57.3356L85.0219 51.7719C89.6594 47.1344 89.6594 39.6156 85.0219 34.9781ZM61.6261 48.4896C62.1915 47.306 63.6093 46.8049 64.7929 47.3703C66.4547 48.1641 68.0097 49.2484 69.3807 50.6194C75.8731 57.1118 75.8731 67.6382 69.3807 74.1306L55.1306 88.3807C48.6382 94.8731 38.1118 94.8731 31.6194 88.3807C25.1269 81.8882 25.1269 71.3618 31.6193 64.8694L37.1831 59.3056C38.1106 58.3781 39.6144 58.3781 40.5418 59.3056C41.4693 60.2331 41.4693 61.7369 40.5418 62.6644L34.9781 68.2281C30.3406 72.8656 30.3406 80.3844 34.9781 85.0219C39.6156 89.6594 47.1344 89.6594 51.7719 85.0219L66.0219 70.7719C70.6594 66.1344 70.6594 58.6156 66.0219 53.9781C65.0375 52.9937 63.9274 52.221 62.7454 51.6564C61.5619 51.091 61.0607 49.6732 61.6261 48.4896Z" fill="white"></path>
</svg><style>@media (prefers-color-scheme: light) { :root { filter: none; } }
@media (prefers-color-scheme: dark) { :root { filter: none; } }
</style></svg>